<?xml version="1.0" encoding="UTF-8"?>
<!DOCTYPE svg PUBLIC "-//W3C//DTD SVG 1.1//EN" "http://www.w3.org/Graphics/SVG/1.1/DTD/svg11.dtd">
<svg xmlns="http://www.w3.org/2000/svg" version="1.1" width="721px" height="719px" style="shape-rendering:geometricPrecision; text-rendering:geometricPrecision; image-rendering:optimizeQuality; fill-rule:evenodd; clip-rule:evenodd" xmlns:xlink="http://www.w3.org/1999/xlink">
<g><path style="opacity:0.988" fill="#020101" d="M 458.5,165.5 C 457.737,166.268 456.737,166.768 455.5,167C 471.167,167.167 486.833,167.333 502.5,167.5C 518.515,167.499 534.181,166.833 549.5,165.5C 552.686,165.895 555.686,166.895 558.5,168.5C 559.968,171.154 561.635,173.487 563.5,175.5C 561.842,178.083 560.176,180.75 558.5,183.5C 556.757,185.038 554.757,186.038 552.5,186.5C 530.497,186.333 508.497,186.5 486.5,187C 487.044,187.717 487.711,188.217 488.5,188.5C 498.806,194.321 509.139,200.155 519.5,206C 532.413,217.938 534.913,231.771 527,247.5C 518.015,258.773 506.515,262.773 492.5,259.5C 491.5,301.495 491.167,343.495 491.5,385.5C 507.571,385.046 523.571,385.546 539.5,387C 546.425,393.492 546.092,399.492 538.5,405C 419.167,405.667 299.833,405.667 180.5,405C 173.28,397.769 173.946,391.435 182.5,386C 197.83,385.5 213.163,385.333 228.5,385.5C 228.833,343.495 228.5,301.495 227.5,259.5C 208.675,263.34 195.842,256.34 189,238.5C 186.09,225.228 189.923,214.394 200.5,206C 210.861,200.155 221.194,194.321 231.5,188.5C 232.289,188.217 232.956,187.717 233.5,187C 186.998,186.168 140.665,186.335 94.5,187.5C 86.0851,189.41 80.2518,194.41 77,202.5C 76.6667,218.833 76.3333,235.167 76,251.5C 73.9477,256.264 70.4477,259.264 65.5,260.5C 59.8598,259.359 56.3598,256.025 55,250.5C 54.3333,236.5 54.3333,222.5 55,208.5C 57.8571,181.81 72.6904,167.477 99.5,165.5C 98.7375,166.268 97.7375,166.768 96.5,167C 117.667,167.167 138.833,167.333 160,167.5C 181.511,167.5 202.677,166.833 223.5,165.5C 228.167,165.5 232.833,165.5 237.5,165.5C 237.833,150.818 237.499,136.152 236.5,121.5C 230.774,119.275 226.941,115.275 225,109.5C 224.055,95.7639 224.388,82.0972 226,68.5C 228.007,64.4067 231.173,61.5733 235.5,60C 271.5,59.3333 307.5,59.3333 343.5,60C 349.274,62.7071 352.774,67.2071 354,73.5C 354.667,84.8333 354.667,96.1667 354,107.5C 352.377,114.396 348.211,119.062 341.5,121.5C 340.012,125.819 340.678,126.319 343.5,123C 351.776,118.477 360.442,117.477 369.5,120C 396.466,134.944 423.466,149.944 450.5,165C 453.146,165.497 455.813,165.664 458.5,165.5 Z M 245.5,81.5 C 274.167,81.5 302.833,81.5 331.5,81.5C 331.5,87.5 331.5,93.5 331.5,99.5C 302.831,99.6666 274.165,99.5 245.5,99C 246.721,93.2111 246.721,87.3778 245.5,81.5 Z"/></g>
<g><path style="opacity:1" fill="#99523e" d="M 319.5,121.5 C 309.5,121.5 299.5,121.5 289.5,121.5C 279.5,121.5 269.5,121.5 259.5,121.5C 259.17,138.342 259.503,155.008 260.5,171.5C 260.44,172.043 260.107,172.376 259.5,172.5C 258.5,155.179 258.167,137.846 258.5,120.5C 279.007,120.17 299.34,120.503 319.5,121.5 Z"/></g>
<g><path style="opacity:1" fill="#dc7e65" d="M 289.5,121.5 C 289.5,132.5 289.5,143.5 289.5,154.5C 280.115,160.53 270.449,166.197 260.5,171.5C 259.503,155.008 259.17,138.342 259.5,121.5C 269.5,121.5 279.5,121.5 289.5,121.5 Z"/></g>
<g><path style="opacity:1" fill="#d4684a" d="M 289.5,121.5 C 299.5,121.5 309.5,121.5 319.5,121.5C 319.829,127.206 319.495,132.872 318.5,138.5C 308.94,144.112 299.273,149.445 289.5,154.5C 289.5,143.5 289.5,132.5 289.5,121.5 Z"/></g>
<g><path style="opacity:1" fill="#ea5f5f" d="M 356.5,139.5 C 359.649,139.211 362.649,139.711 365.5,141C 411.242,167.733 457.242,194.066 503.5,220C 506.321,221.822 508.821,223.989 511,226.5C 512.5,237 508,241.5 497.5,240C 453.67,215.253 410.004,190.253 366.5,165C 361.343,162.832 356.343,163.165 351.5,166C 309.997,190.253 268.33,214.253 226.5,238C 214.297,243.494 208.464,239.661 209,226.5C 210.167,224.667 211.667,223.167 213.5,222C 261.229,194.473 308.896,166.973 356.5,139.5 Z"/></g>
<g><path style="opacity:0.837" fill="#1f1f1f" d="M 99.5,165.5 C 140.833,165.5 182.167,165.5 223.5,165.5C 202.677,166.833 181.511,167.5 160,167.5C 138.833,167.333 117.667,167.167 96.5,167C 97.7375,166.768 98.7375,166.268 99.5,165.5 Z"/></g>
<g><path style="opacity:0.864" fill="#1d1d1d" d="M 458.5,165.5 C 488.833,165.5 519.167,165.5 549.5,165.5C 534.181,166.833 518.515,167.499 502.5,167.5C 486.833,167.333 471.167,167.167 455.5,167C 456.737,166.768 457.737,166.268 458.5,165.5 Z"/></g>
<g><path style="opacity:0.979" fill="#010202" d="M 665.5,242.5 C 664.673,237.015 664.173,231.348 664,225.5C 663.333,331.833 663.333,438.167 664,544.5C 664.17,533.992 664.67,523.659 665.5,513.5C 665.667,525.838 665.5,538.171 665,550.5C 664.867,557.373 663.033,563.706 659.5,569.5C 670.541,570.092 681.541,570.926 692.5,572C 703.504,577.795 708.17,586.962 706.5,599.5C 708.078,622.508 699.411,640.341 680.5,653C 674.621,655.404 668.621,657.404 662.5,659C 624.167,659.667 585.833,659.667 547.5,659C 543.458,656.808 540.791,653.641 539.5,649.5C 541.181,645.31 543.848,641.81 547.5,639C 578.832,638.5 610.165,638.333 641.5,638.5C 674.83,640.496 689.163,624.83 684.5,591.5C 674.5,591.5 664.5,591.5 654.5,591.5C 583.167,591.5 511.833,591.5 440.5,591.5C 442.567,606.537 436.901,617.371 423.5,624C 381.167,624.667 338.833,624.667 296.5,624C 283.099,617.371 277.433,606.537 279.5,591.5C 198.167,591.5 116.833,591.5 35.5,591.5C 35.3336,599.84 35.5003,608.173 36,616.5C 40.15,628.321 48.3167,635.487 60.5,638C 209.833,638.333 359.167,638.667 508.5,639C 512.706,641.242 515.039,644.742 515.5,649.5C 515.682,654.489 513.349,657.655 508.5,659C 357.833,659.667 207.167,659.667 56.5,659C 30.0295,652.529 15.8628,635.696 14,608.5C 12.7791,598.893 13.7791,589.56 17,580.5C 19.3551,578.145 21.6884,575.812 24,573.5C 26.368,572.283 28.868,571.449 31.5,571C 41.1667,570.667 50.8333,570.333 60.5,570C 56.7273,563.411 54.894,556.244 55,548.5C 54.3333,463.833 54.3333,379.167 55,294.5C 55.6445,288.69 58.8112,285.357 64.5,284.5C 69.8348,285.001 73.6681,287.667 76,292.5C 76.3333,379.833 76.6667,467.167 77,554.5C 79.1667,563.333 84.6667,568.833 93.5,571C 270.667,571.833 447.667,571.666 624.5,570.5C 633.858,568.982 640.025,563.649 643,554.5C 643.667,437.167 643.667,319.833 643,202.5C 639.571,194.071 633.404,188.904 624.5,187C 615.173,186.5 605.839,186.334 596.5,186.5C 591.611,184.368 588.944,180.701 588.5,175.5C 588.724,171.438 590.724,168.605 594.5,167C 607.143,165.131 619.809,165.131 632.5,167C 653.108,173.724 663.941,187.891 665,209.5C 665.5,220.495 665.667,231.495 665.5,242.5 Z"/></g>
<g><path style="opacity:1" fill="#6ad7e5" d="M 563.5,175.5 C 571.833,175.5 580.167,175.5 588.5,175.5C 588.944,180.701 591.611,184.368 596.5,186.5C 599.305,187.319 602.305,187.819 605.5,188C 610.045,192.928 612.545,198.761 613,205.5C 613.667,321.167 613.667,436.833 613,552.5C 612.238,559.131 609.738,564.964 605.5,570C 611.825,570.5 618.158,570.666 624.5,570.5C 447.667,571.666 270.667,571.833 93.5,571C 84.6667,568.833 79.1667,563.333 77,554.5C 76.6667,467.167 76.3333,379.833 76,292.5C 73.6681,287.667 69.8348,285.001 64.5,284.5C 65.4672,276.586 65.8005,268.586 65.5,260.5C 70.4477,259.264 73.9477,256.264 76,251.5C 76.3333,235.167 76.6667,218.833 77,202.5C 80.2518,194.41 86.0851,189.41 94.5,187.5C 140.336,187.168 186.003,187.501 231.5,188.5C 221.194,194.321 210.861,200.155 200.5,206C 189.923,214.394 186.09,225.228 189,238.5C 195.842,256.34 208.675,263.34 227.5,259.5C 228.5,301.495 228.833,343.495 228.5,385.5C 213.163,385.333 197.83,385.5 182.5,386C 173.946,391.435 173.28,397.769 180.5,405C 299.833,405.667 419.167,405.667 538.5,405C 546.092,399.492 546.425,393.492 539.5,387C 523.571,385.546 507.571,385.046 491.5,385.5C 491.167,343.495 491.5,301.495 492.5,259.5C 506.515,262.773 518.015,258.773 527,247.5C 534.913,231.771 532.413,217.938 519.5,206C 509.139,200.155 498.806,194.321 488.5,188.5C 509.833,187.833 531.167,187.167 552.5,186.5C 554.757,186.038 556.757,185.038 558.5,183.5C 560.176,180.75 561.842,178.083 563.5,175.5 Z"/></g>
<g><path style="opacity:1" fill="#f0edf0" d="M 440.5,230.5 C 440.5,282.167 440.5,333.833 440.5,385.5C 436.5,385.5 432.5,385.5 428.5,385.5C 428.667,344.832 428.5,304.165 428,263.5C 426.598,257.764 423.098,253.931 417.5,252C 379.167,251.333 340.833,251.333 302.5,252C 297.147,254.18 293.813,258.013 292.5,263.5C 291.501,303.997 291.168,344.663 291.5,385.5C 277.167,385.5 262.833,385.5 248.5,385.5C 248.333,339.832 248.5,294.165 249,248.5C 286,227.167 323,205.833 360,184.5C 386.722,200.061 413.555,215.394 440.5,230.5 Z"/></g>
<g><path style="opacity:1" fill="#346b72" d="M 94.5,187.5 C 140.665,186.335 186.998,186.168 233.5,187C 232.956,187.717 232.289,188.217 231.5,188.5C 186.003,187.501 140.336,187.168 94.5,187.5 Z"/></g>
<g><path style="opacity:1" fill="#356c73" d="M 552.5,186.5 C 531.167,187.167 509.833,187.833 488.5,188.5C 487.711,188.217 487.044,187.717 486.5,187C 508.497,186.5 530.497,186.333 552.5,186.5 Z"/></g>
<g><path style="opacity:1" fill="#2ed0e1" d="M 596.5,186.5 C 605.839,186.334 615.173,186.5 624.5,187C 633.404,188.904 639.571,194.071 643,202.5C 643.667,319.833 643.667,437.167 643,554.5C 640.025,563.649 633.858,568.982 624.5,570.5C 618.158,570.666 611.825,570.5 605.5,570C 609.738,564.964 612.238,559.131 613,552.5C 613.667,436.833 613.667,321.167 613,205.5C 612.545,198.761 610.045,192.928 605.5,188C 602.305,187.819 599.305,187.319 596.5,186.5 Z"/></g>
<g><path style="opacity:1" fill="#e0dce0" d="M 440.5,230.5 C 450.78,236.273 460.946,242.273 471,248.5C 471.5,294.165 471.667,339.832 471.5,385.5C 461.167,385.5 450.833,385.5 440.5,385.5C 440.5,333.833 440.5,282.167 440.5,230.5 Z"/></g>
<g><path style="opacity:1" fill="#dc7f65" d="M 377.5,271.5 C 377.5,309.5 377.5,347.5 377.5,385.5C 355.833,385.5 334.167,385.5 312.5,385.5C 312.5,347.5 312.5,309.5 312.5,271.5C 334.167,271.5 355.833,271.5 377.5,271.5 Z"/></g>
<g><path style="opacity:1" fill="#d26749" d="M 377.5,271.5 C 387.833,271.5 398.167,271.5 408.5,271.5C 408.5,309.5 408.5,347.5 408.5,385.5C 398.167,385.5 387.833,385.5 377.5,385.5C 377.5,347.5 377.5,309.5 377.5,271.5 Z"/></g>
<g><path style="opacity:0.594" fill="#0f0f0f" d="M 665.5,242.5 C 665.5,332.833 665.5,423.167 665.5,513.5C 664.67,523.659 664.17,533.992 664,544.5C 663.333,438.167 663.333,331.833 664,225.5C 664.173,231.348 664.673,237.015 665.5,242.5 Z"/></g>
<g><path style="opacity:1" fill="#5a5a5a" d="M 292.5,263.5 C 292.5,304.5 292.5,345.5 292.5,386.5C 277.657,386.829 262.99,386.496 248.5,385.5C 262.833,385.5 277.167,385.5 291.5,385.5C 291.168,344.663 291.501,303.997 292.5,263.5 Z"/></g>
<g><path style="opacity:1" fill="#000101" d="M 125.5,428.5 C 146.836,428.333 168.169,428.5 189.5,429C 195.567,432.717 197.067,437.884 194,444.5C 192.681,446.487 190.848,447.654 188.5,448C 167.833,448.667 147.167,448.667 126.5,448C 119.518,444.831 117.684,439.664 121,432.5C 122.397,430.93 123.897,429.596 125.5,428.5 Z"/></g>
<g><path style="opacity:1" fill="#010201" d="M 371.5,435.5 C 437.501,435.333 503.501,435.5 569.5,436C 599.384,446.597 610.884,467.43 604,498.5C 596.905,515.922 584.071,526.422 565.5,530C 502.5,530.667 439.5,530.667 376.5,530C 355.216,527.05 341.716,515.216 336,494.5C 331.48,464.857 343.314,445.19 371.5,435.5 Z"/></g>
<g><path style="opacity:1" fill="#96d97a" d="M 374.5,455.5 C 438.168,455.333 501.834,455.5 565.5,456C 580.744,460.982 587.578,471.482 586,487.5C 583.268,499.232 576.101,506.732 564.5,510C 501.833,510.667 439.167,510.667 376.5,510C 358.633,504.105 351.8,491.938 356,473.5C 359.73,464.905 365.897,458.905 374.5,455.5 Z"/></g>
<g><path style="opacity:1" fill="#000000" d="M 125.5,473.5 C 173.834,473.333 222.168,473.5 270.5,474C 276.542,477.748 278.042,482.915 275,489.5C 273.681,491.487 271.848,492.654 269.5,493C 221.833,493.667 174.167,493.667 126.5,493C 120.38,490.514 118.213,486.014 120,479.5C 121.36,476.977 123.193,474.977 125.5,473.5 Z"/></g>
<g><path style="opacity:1" fill="#000000" d="M 125.5,510.5 C 173.834,510.333 222.168,510.5 270.5,511C 276.542,514.748 278.042,519.915 275,526.5C 273.421,528.041 271.587,529.208 269.5,530C 221.833,530.667 174.167,530.667 126.5,530C 120.109,526.495 118.275,521.328 121,514.5C 122.397,512.93 123.897,511.596 125.5,510.5 Z"/></g>
<g><path style="opacity:1" fill="#b4acb5" d="M 654.5,591.5 C 655.055,601.964 654.222,612.297 652,622.5C 649.457,628.528 645.957,633.861 641.5,638.5C 610.165,638.333 578.832,638.5 547.5,639C 543.848,641.81 541.181,645.31 539.5,649.5C 531.5,649.5 523.5,649.5 515.5,649.5C 515.039,644.742 512.706,641.242 508.5,639C 359.167,638.667 209.833,638.333 60.5,638C 48.3167,635.487 40.15,628.321 36,616.5C 35.5003,608.173 35.3336,599.84 35.5,591.5C 116.833,591.5 198.167,591.5 279.5,591.5C 277.433,606.537 283.099,617.371 296.5,624C 338.833,624.667 381.167,624.667 423.5,624C 436.901,617.371 442.567,606.537 440.5,591.5C 511.833,591.5 583.167,591.5 654.5,591.5 Z"/></g>
<g><path style="opacity:1" fill="#796c78" d="M 300.5,591.5 C 340.167,591.5 379.833,591.5 419.5,591.5C 419.797,595.767 419.464,599.934 418.5,604C 379.5,604.667 340.5,604.667 301.5,604C 300.536,599.934 300.203,595.767 300.5,591.5 Z"/></g>
<g><path style="opacity:1" fill="#a69aa6" d="M 654.5,591.5 C 664.5,591.5 674.5,591.5 684.5,591.5C 689.163,624.83 674.83,640.496 641.5,638.5C 645.957,633.861 649.457,628.528 652,622.5C 654.222,612.297 655.055,601.964 654.5,591.5 Z"/></g>
<g><path style="opacity:0.024" fill="#000000" d="M -0.5,717.5 C 0.166667,717.5 0.5,717.833 0.5,718.5C 0.166667,718.167 -0.166667,717.833 -0.5,717.5 Z"/></g>
</svg>
